Patient4_TMGait_0pt4_03_left_40_EMG.mot
version=1
nRows=20
nColumns=33
inDegrees=no
endheader
time	1LAddLong	2LGlutMax	3LGlutMed	4LIliopsoas	5LSemiMemb	6LBicFemLong	7LRecFem	8LVastMed	9LVastLat	10LGasMed	11LTibAnt	12lTibPost	13LPeroneusLong	14LSol	15LExtDigLong	16LFlexDigLong	17RAddLong	18RGlutMax	19RGlutMed	20RIliopsoas	21RSemiMemb	22RBicFemLong	23RRecFem	24RVastMed	25RVastLat	26RGasMed	27RTibAnt	28RTibPost	29RPeroneusLong	30RSol	31RExtDigLong	32RFlexDigLong
52.97	0.000153	0.17593	0.083313	-0.00351	0.002441	0.036316	0.13092	-0.001373	-0.11917	0.027313	-0.01297	-0.00473	0.030518	-0.028687	0.040436	-0.007019	0.004425	0.18692	-0.15289	0.002289	-0.016937	0.050201	0.13367	0.097961	0.024719	-0.003052	-0.36362	-0.007172	0.41946	0.242	-0.00885	-0.007324
52.971	0.009766	0.11887	0.089569	0.01297	0.002594	0.052185	0.10162	-0.001678	-0.16098	0.019989	0.00824	0.01236	-0.007019	-0.060577	0.099335	-0.000916	-0.006714	0.040588	0.53177	-0.020905	-0.017395	0.042725	0.11261	-0.037384	0.032349	-0.007019	-0.19287	-0.002899	0.4837	0.038605	0.008545	-0.002441
52.972	0.008392	0.050507	0.028992	0.018005	-0.001526	0.03067	0.083008	0.001984	-0.17502	-0.020905	0.023956	0.014648	0.029755	-0.055695	0.10422	0.000916	-0.011749	0.10757	1.08	-0.007172	-0.024109	0.067444	0.11322	-0.14603	0.063477	-0.001221	-0.51651	-0.003662	0.30899	-0.051575	-0.003662	-0.002594
52.973	0.009766	0.020294	0.028381	0.015564	0.002441	0.034485	0.066528	0.005035	-0.18768	-0.042114	0.079803	0.016022	0.054932	-0.010986	0.12909	0.004578	-0.003815	0.23224	0.85602	0.037689	-0.016327	0.040131	0.030365	-0.097656	0.061951	0.006104	-0.50171	-0.007019	-0.44296	-0.12085	-0.00351	-0.010681
52.974	0.006256	-0.001678	0.007324	-0.020752	-0.000916	0.033875	0.069885	-0.003204	-0.18692	-0.016022	0.018768	0.00061	0.001068	0.017853	0.11414	0.006256	0.001831	0.22827	-0.12726	0.002747	-0.020599	0.039063	-0.0914	-0.05249	0.050964	0.005646	-0.017395	-0.00351	-0.26413	-0.24353	0.006714	-0.014496
52.975	0.009003	-0.024567	-0.014038	0.003357	0.003815	0.063477	0.059814	-0.000458	-0.19943	-0.002899	0.036469	0.006866	0.008087	-0.00824	-0.043945	0.010681	0.015717	0.20523	-0.78445	0.010986	-0.008087	0.028381	-0.22354	-0.072327	0.032501	0.007019	0.69977	-0.002747	-0.77179	-0.33356	-0.00946	0.000305
52.976	0.00351	-0.051422	-0.062256	0.006104	-0.003204	0.061493	0.037079	0.007935	-0.20477	-0.008698	0.043945	0.006409	0.057526	-0.005493	-0.17761	0.001526	0.023804	0.27206	-0.61203	0.012054	-0.021362	0.005798	-0.14297	-0.14801	-0.066223	0.011444	1.1176	0.009766	-0.84824	-0.19531	-0.001526	0.004425
52.977	0.01297	-0.14267	-0.13184	0.015411	-0.007477	0.050354	0.055542	0.010223	-0.20905	0.005035	-0.048828	0.005035	0.072784	-0.018768	0.024719	0.003815	0.01709	0.15121	0.29556	-0.036316	-0.02182	0.006714	-0.14908	-0.12192	-0.1236	-0.002289	0.32318	-0.00412	-0.95917	0.039215	0.001526	-0.001526
52.978	0.003204	-0.15091	-0.073853	0.017853	-0.000763	0.052338	0.032349	0.000153	-0.21637	0.016479	-0.023804	0.005646	-0.001526	-0.041809	-0.10544	-0.006104	0.017242	0.14954	0.28	-0.070038	-0.046082	0.010681	0.013885	-0.085449	-0.15991	-0.009766	-0.37033	-0.007324	0.32791	0.22415	-0.006409	-0.002747
52.979	-0.046539	-0.12894	-0.014648	0.002136	0.000458	0.04715	0.018921	0.002136	-0.2269	0.040894	0.003967	0.002747	-0.054779	0.007629	-0.099792	0.001984	0.032196	0.12024	1.1856	-0.18097	-0.019684	0.025177	-0.055847	-0.073242	-0.050812	-0.023346	-0.33005	-0.011749	0.73547	0.33737	-0.001373	-0.003967
52.98	-0.000763	-0.11978	-0.028076	0.011902	-0.002136	0.054474	0.006409	-0.001221	-0.22049	0.041656	0.007172	0.005035	-0.025482	0.061798	-0.11597	0.005646	0.014801	0.073547	0.83969	-0.13412	-0.000153	0.048065	-0.24185	0.022125	0.14191	-0.038757	0.16785	-0.005798	1.2024	0.34851	-0.006866	-0.01297
52.981	-0.044098	-0.11124	-0.061493	0.013123	-0.010071	0.056915	-0.016327	-0.002136	-0.21988	0.005341	-0.055847	-0.003815	0.039215	0.055542	-0.10773	0.002594	0.005798	0.1239	0.64865	0.13046	-0.10101	0.071716	-0.068817	0.1471	0.13321	-0.011597	0.045776	-0.003967	0.60165	0.020599	-0.002441	0.00824
52.982	0.031738	-0.12528	-0.09201	-0.010681	-0.012665	0.049591	-0.026398	-0.003357	-0.21423	-0.02121	0.028381	-0.003204	0.050049	0.034485	-0.024109	0.005341	-0.001221	0.077515	-0.079651	0.26306	-0.18601	0.058899	0.15289	-0.014343	0.061798	0.005341	-0.16693	0.00351	-0.068054	-0.21469	-0.008698	0.008698
52.983	-0.008087	-0.12787	-0.06012	-0.008392	-0.001373	0.049286	-0.045166	0.001068	-0.20035	-0.012054	0.013123	0.003204	0.035706	0.014954	-0.01709	0.005798	0.005646	0.093994	-0.17136	0.11246	-0.074615	0.016022	-0.030975	0.012512	0.019073	0.007172	-0.28168	-0.000916	0.093079	-0.17929	-0.002441	0.005951
52.984	-0.006256	-0.10468	-0.021973	0.001068	-0.003052	0.025024	-0.025787	0.002747	-0.20523	-0.001373	-0.009003	0.001221	0.034637	0.024567	-0.01358	-0.002441	0.003357	0.038757	0.45853	-0.000916	-0.032043	0.050507	-0.071411	0.035248	0.016937	0.005493	-0.40695	-0.00412	0.079041	-0.27344	-0.005798	0.009918
52.985	-0.005035	-0.11292	0.033112	0.010834	0.010223	0.027313	-0.045013	-0.004578	-0.2002	0.01297	-0.030975	0.003967	-0.006256	0.010681	0.31479	0.002899	-0.003357	0.003967	0.33707	0.0354	-0.028839	0.074768	0.00351	0.11246	0.058441	0.011444	-0.53543	0.000153	-0.23666	-0.30136	-0.002594	0.000763
52.986	0.004272	-0.10635	0.040588	0.006409	0.016937	0.052948	-0.035706	0.002136	-0.20493	0.010834	0.005341	0.006714	-0.021515	0.00412	-0.18417	0.009766	0.00351	-0.032654	-0.32196	0.12909	-0.010986	0.056915	0.039063	0.067444	0.088196	-0.005798	-0.00351	-0.000458	0.17242	-0.15732	0.00061	-0.003357
52.987	0.000305	-0.10239	-0.011597	0.019073	0.008392	0.028381	-0.047302	-0.000458	-0.21088	-0.01358	0.031738	0.006866	0.027618	0.001678	0.048218	0.004425	0.001221	-0.05188	-0.4277	0.13794	-0.018921	0.040436	0.10208	0.07782	0.058136	-0.004272	0.40222	-0.001678	0.40009	0.12817	-0.001373	-0.002594
52.988	-0.007782	-0.10162	-0.019379	0.002899	0.014648	0.035706	-0.059814	-0.000916	-0.21286	-0.041809	-0.031128	0.002136	0.13779	-0.012207	0.28915	-0.001068	0.006866	-0.025177	-0.19318	0.040894	0.05188	0.036926	0.16678	0.026093	-0.007324	-0.001831	0.22903	-0.000305	-0.18326	0.093079	0.001831	-0.007477
52.989	-0.00824	-0.11704	-0.013275	0.008698	0.007782	0.007629	-0.058289	-0.004883	-0.21637	-0.032654	0.047455	0.006714	0.067291	0.007935	-0.20783	0.005341	0.006104	-0.03952	-0.005035	-0.013428	0.038452	-0.001373	0.22781	-0.091705	-0.077362	-0.003204	0.21179	-0.001678	0.1738	0.18249	-0.001831	-0.005951
